<?xml version="1.0" encoding="iso-8859-1"?>
<!-- Generator: Adobe Illustrator 19.0.0, SVG Export Plug-In . SVG Version: 6.00 Build 0)  -->
<svg version="1.1" id="Layer_1" xmlns="http://www.w3.org/2000/svg" xmlns:xlink="http://www.w3.org/1999/xlink" x="0px" y="0px"
	 viewBox="0 0 512 512" style="enable-background:new 0 0 512 512;" xml:space="preserve">
<polygon style="fill:#AEADB3;" points="416.758,44.8 416.758,173.699 385.411,173.699 385.411,138.58 255.269,138.58 
	255.269,435.853 286.563,435.853 286.563,467.2 130.194,467.2 130.194,435.853 161.489,435.853 161.489,138.58 31.347,138.58 
	31.347,173.699 0,173.699 0,44.8 "/>
<polygon style="fill:#FD7052;" points="489.963,76.147 489.963,435.853 512,435.853 512,467.2 435.231,467.2 435.231,435.853 
	458.616,435.853 458.616,76.147 435.231,76.147 435.231,44.8 512,44.8 512,76.147 "/>
<polygon style="fill:#8B8892;" points="416.758,44.8 416.758,173.699 385.411,173.699 385.411,138.58 255.269,138.58 
	255.269,435.853 286.563,435.853 286.563,467.2 208.374,467.2 208.374,44.8 "/>
<polygon style="fill:#FF4F18;" points="489.963,76.147 489.963,435.853 512,435.853 512,467.2 473.621,467.2 473.621,44.8 512,44.8 
	512,76.147 "/>
<g>
</g>
<g>
</g>
<g>
</g>
<g>
</g>
<g>
</g>
<g>
</g>
<g>
</g>
<g>
</g>
<g>
</g>
<g>
</g>
<g>
</g>
<g>
</g>
<g>
</g>
<g>
</g>
<g>
</g>
</svg>
